# xmcd
#
# Track frame offsets:
#       150
#       22367
#       40006
#       59244
#       83757
#       101341
#       118767
#       136137
#       146076
#       162442
#       179314
#
# Disc length: 2627 seconds
#
# Revision: 0
# Processed by: cddbd v1.4PL0 Copyright (c) Steve Scherf et al.
# Submitted via: CD-DA_X-Tractor v0.21
#
DISCID=9c0a410b
DTITLE=Nasi and os Irmaos do Blues - O Rei da Cocada Preta
DYEAR=1900
DGENRE=
TTITLE0=Poeira os Olhos
TTITLE1=Vampiro
TTITLE2=O Rei da Cocada Preta
TTITLE3=Dos Males o Menor
TTITLE4=Dama da Noite
TTITLE5=Me De Sangue
TTITLE6=Nao Tem Acordo
TTITLE7=Ossos do Oficio
TTITLE8=Quero Ser Seu Cachorro
TTITLE9=Mamae Eu Quero
TTITLE10=Nas Assas do Desejo
EXTD=
EXTT0=
EXTT1=
EXTT2=
EXTT3=
EXTT4=
EXTT5=
EXTT6=
EXTT7=
EXTT8=
EXTT9=
EXTT10=
PLAYORDER=
